<?xml version="1.0" encoding="utf-8"?>
<!-- Generator: Adobe Illustrator 27.5.0, SVG Export Plug-In . SVG Version: 6.00 Build 0)  -->
<svg version="1.1" id="Layer_1" xmlns="http://www.w3.org/2000/svg" xmlns:xlink="http://www.w3.org/1999/xlink" x="0px" y="0px"
	 viewBox="0 0 295 613" style="enable-background:new 0 0 295 613;" xml:space="preserve">
<style type="text/css">
	.st0{fill:#00A0E8;}
	.st1{opacity:0.5;fill:#FFFFFF;}
	.st2{opacity:0.5;}
	.st3{fill:#FFFFFF;}
</style>
<g>
	<path class="st0" d="M3.5,3.9C3.5,1.9,4.9,0,6.8,0h135.1c1.9,0,3.3,1.4,3.3,3.1v48.2c0,1.9-1.7,3.6-3.6,3.6H61.4
		c-1.7,0-3,1.1-3,3.1v16.6c0,1.4,0.8,2.5,2.8,2.5h35c1.4,0,3,1.4,3,2.8V130c0,1.7-1.4,3-3.3,3H61.1c-1.4,0-2.8,1.9-2.8,3.6V204
		c0,2.5-1.4,3.9-3.6,3.9H6.5c-1.4,0-3.1-1.7-3.1-3.6V3.9z"/>
	<path class="st0" d="M112.2,111.2c0-25.5,19.1-43,47.7-43c28.5,0,47.7,17.2,47.7,44.3V165c0,25.8-19.1,43.2-47.7,43.2
		c-28.3,0-47.7-17.7-47.7-43.2V111.2z M155.5,157.8c0,3.3,1.4,5.5,4.4,5.5c3.1,0,4.4-2.2,4.4-5.5v-39.7c0-3.1-1.7-5.5-4.4-5.5
		c-3,0-4.4,2.5-4.4,5.5V157.8z"/>
	<path class="st0" d="M220.9,43.8c0-1.4,0.6-2.2,1.7-2.2h39.1c1.7,0,3.6,8.9,5,8.9c0.6,0,1.1-0.5,1.7-1.9c2.8-6.6,8.9-6.9,17.5-6.9
		c0.8,0,1.7,0.8,1.7,1.9v39.9c0,1.1-0.6,1.9-1.9,1.9c-14.1,0-19.7,7.5-19.7,29.9v90.1c0,1.4-1.1,2.5-2.5,2.5h-40.5
		c-1.1,0-1.9-0.8-1.9-2.2V43.8z"/>
	<g>
		<path class="st0" d="M1.9,263.4c0-23,16.9-38.8,41-38.8c8,0,14.7,1.4,19.4,4.2c1.7-3.1,9.1-12.2,15.2-12.2
			c6.9,0,14.4,14.4,14.4,16.1c0,2.8-12.7,7.2-14.4,8.9c3.3,4.4,5.8,13.3,5.8,23v41.3c0,23-16.6,38.8-40.5,38.8
			c-3.3,0-8.6-0.6-11.4-1.4c-1.1,1.9-1.7,3.3-1.7,4.4c0,3.3,3.6,5.3,15,6.9c29.7,4.2,42.7,15,42.7,41c0,24.4-18.6,36.9-42.7,36.9
			c-31,0-44.9-16.1-44.9-31.9c0-9.4,3.6-16.4,8.9-20.2c-3.9-3.3-6.7-9.7-6.7-18.8c0-10,6.9-21.6,13.6-26.6
			c-7.5-6.4-13.9-18.3-13.9-29.4V263.4z M29.1,388.1c-1.1,0.8-1.7,2.5-1.7,3.9c0,7.5,12.7,7.8,15,7.8c4.7,0,11.1-1.1,11.1-5.8
			c0-1.7-1.4-3-4.2-3C42.7,390.6,34.4,389.5,29.1,388.1z M38.3,300.6c0,3.6,1.9,5.6,4.7,5.6c2.8,0,4.2-1.9,4.2-5.6v-30.5
			c0-3.6-1.7-5.5-4.2-5.5c-2.8,0-4.7,1.7-4.7,5.3V300.6z"/>
	</g>
	<path class="st0" d="M204.6,390.9c-1.1,0-2.2-1.1-2.2-2.8V226.6c0-1.1,0.8-1.9,1.9-1.9H239c1.9,0,4.2,11.6,5.3,11.6
		c0.3,0,0.8-0.3,1.9-1.9c5-6.4,10-10.2,21.6-10.2c13.6,0,27.2,10.5,27.2,29.4v136.1c0,0.8-0.6,1.4-1.4,1.4h-38.3
		c-1.1,0-1.9-0.8-1.9-2V275.6c0-4.2-2.2-5.6-4.4-5.6c-2.2,0-4.4,1.4-4.4,5.6v113.6c0,1.1-0.6,1.7-1.9,1.7H204.6z"/>
	<path class="st0" d="M99.6,452.5c0-24.4,16.6-48,46-48c29.4,0,47.4,25.5,47.4,50.7c0,13.3,0,15-3.3,15.2l-36.3,1.9
		c-1.9,0.3-3.3-1.7-3.3-3.3v-20.5c0-3.3-2.2-5.6-4.4-5.6c-2,0-4.4,2.2-4.4,5.6v73.7c0,3.3,2.5,5.5,4.7,5.5c1.9,0,4.2-2.2,4.2-5.5
		v-17.7c0-1.7,1.1-2.8,3-2.8l36.9,1.9c1.9,0.3,3,1.7,3,3.3c0,18.8,0,63.7-48.5,63.7c-26.6,0-44.9-20.8-44.9-52.9V452.5z"/>
	<path class="st0" d="M192.7,407.1c0-0.8,0.3-1.9,1.4-1.9h38.3c1.4,0,1.9,0.8,2.2,1.9l6.1,41.6c0.3,1.1,0.6,2.2,1.1,2.2
		c0.3,0,0.8-1.1,1.1-2.2l7.8-42.1c0.3-0.6,0.6-1.4,1.7-1.4h36.6c1.1,0,1.9,0.8,1.7,1.1l-39.1,204.6c-0.3,1.1-1.1,2.2-2.5,2.2h-35.5
		c-1.4,0-2.2-1.1-1.9-2.5l12.8-69.9c0.3-1.4,0.3-2.8,0-4.2L192.7,407.1z"/>
	<g>
		<g>
			<path class="st0" d="M99.6,227.4c0-1.7,0.8-2.8,2.2-2.8h34.9c1.4,0,2.2,0.8,2.2,2.2v105.9c0,4.2,2.5,5.5,4.4,5.5
				c2.2,0,4.4-1.4,4.4-5.5V226.8c0-1.4,0.8-2.2,1.9-2.2h36c1.4,0,2.5,0.8,2.5,1.9V389c0,1.1-0.8,1.9-2.2,1.9h-32.7
				c-1.7,0-3.3-9.7-5-9.7c-0.6,0-1.4,0.6-3.1,2.2c-5,4.7-9.7,7.5-19.7,7.5c-11.4,0-26.1-9.4-26.1-28.8V227.4z"/>
		</g>
	</g>
	<path class="st1" d="M285.8,431.3l0.6-3.3h-12v-22.9h-3.3V428h-24.4l-0.6,3.3h25v27.6h-27.6v-13.6l-0.6,3.3
		c-0.3,1.1-0.8,2.2-1.1,2.2c-0.6,0-0.8-1.1-1.1-2.2l-0.4-3v13.3h-27.6v-27.6h25.5l-0.5-3.3h-25v-22.9h-3.3V428h-11.5l0.8,3.3h10.7
		v27.6h-4l0.8,3.3h3.2v12.9l3.3,13.4v-26.3h27.6v27.6h-27.3l0.8,3.3h26.5v27.6h-19.8l0.8,3.3h19v27.6h-17.9l-0.6,3.3h18.5v27.6
		h-23.5l-0.6,3.3h24.1V613h3.3v-27.2h12.8l0.6-3.3h-13.4v-27.6h18.7l0.6-3.3h-19.3V524H268l0.6-3.3h-25.2v-27.6h27.6V508l3.5-18.2
		h-0.2v-27.6h5.5l0.6-3.3h-6.1v-27.6H285.8z M271.1,489.8h-27.6v-27.6h27.6V489.8z"/>
	<path class="st1" d="M192.4,524c0.1-1.1,0.2-2.2,0.3-3.3h-14.6v-17.5l-3.3-0.2v17.7h-24.7v1.7c0,0.6-0.1,1.1-0.2,1.6h24.9v27.6
		h-27.6v-24c-0.4,0.2-0.9,0.3-1.3,0.3c-0.7,0-1.4-0.2-2-0.6v24.3h-27.6V524h25.1c-0.1-0.5-0.2-1-0.2-1.6v-1.7h-24.9v-27.6h24.9v-3.3
		h-24.9v-27.6h24.9v-3.3h-24.9v-27.6h27.6v12.3c0.6-0.3,1.2-0.5,1.7-0.5c0.5,0,1.1,0.1,1.6,0.4v-12.2h27.6v27.6h-24.7v3.3h24.7v9.1
		l3.3-0.2v-9H193c0-1,0-2.1,0-3.3h-14.9v-27.6h9.4c-0.5-1.1-1.1-2.2-1.8-3.3h-7.6v-10c-1-1.1-2.1-2.1-3.3-3v13h-27.6v-23.4
		c-0.5,0-1,0-1.6,0c-0.6,0-1.2,0-1.7,0V428h-27.6v-13.2c-1.1,1-2.2,2-3.3,3.1V428h-7.3c-0.6,1.1-1.1,2.2-1.6,3.3h8.9v27.6H99.6v3.3
		H113v27.6H99.6v3.3H113v27.6H99.7c0,1.1,0.1,2.2,0.2,3.3H113v27.6h-4.5c0.7,1.1,1.5,2.2,2.3,3.3h2.2v2.6c1,1.1,2.1,2.2,3.3,3.2
		v-5.8h27.6v16c0.2,0,0.4,0,0.6,0c0.9,0,1.8,0,2.7-0.1v-15.9h27.6v7.1c1.2-0.9,2.3-1.9,3.3-2.9v-4.2h3.7c0.8-1.1,1.6-2.2,2.2-3.3h-6
		V524H192.4z"/>
	<path class="st1" d="M292.6,240.8c-0.5-1.1-1-2.2-1.6-3.3h-9.5v-9.7c-1.1-0.6-2.2-1.2-3.3-1.7v11.4h-27.6v-8.1
		c-1.2,1-2.2,2.1-3.3,3.4v4.7h-27.6v-12.9h-3.3v12.9h-14v3.3h14v27.6h-14v3.3h14v27.6h-14v3.3h14v27.6h-14v3.3h14v27.6h-14v3.3h14
		v26.5h3.3v-26.5h24.8v-3.3h-24.8v-27.6h24.8v-3.3h-24.8v-27.6h24.8v-3.3h-24.8v-27.6h25.8c0.9-1.2,2.1-1.7,3.4-1.7
		c1.3,0,2.6,0.5,3.4,1.7h25.9v27.6h-24.8v3.3h24.8v27.6h-24.8v3.3h24.8v27.6h-24.8v3.3h24.8v26.5h3.3v-26.5H295v-3.3h-13.5v-27.6
		H295v-3.3h-13.5v-27.6H295v-3.3h-13.5v-27.6H295v-3.3h-13.5v-27.6H292.6z M247.4,268.4h-27.6v-27.6h27.6V268.4z M278.3,268.4h-27.6
		v-27.6h27.6V268.4z"/>
	<path class="st1" d="M188.3,271.7v-3.3h-12.5v-27.6h12.5v-3.3h-12.5v-12.9h-3.3v12.9h-24.7v3.3h24.7v27.6h-24.7v3.3h24.7v27.6
		h-24.7v3.3h24.7v27.6h-24.7v2.5c0,0.3,0,0.5,0,0.8h24.7v27.6H145V338c-0.5,0.2-1,0.3-1.5,0.3c-0.6,0-1.2-0.1-1.7-0.4v23.3h-27.6
		v-27.6h25c0-0.3,0-0.5,0-0.8v-2.5h-24.9v-27.6H139v-3.3h-24.9v-27.6H139v-3.3h-24.9v-27.6H139v-3.3h-24.9v-12.9h-3.3v12.9H99.6v3.3
		h11.1v27.6H99.6v3.3h11.1v27.6H99.6v3.3h11.1v27.6H99.6v3.3h11.1v27.6H99.6v1c0,0.8,0,1.6,0.1,2.3h11.1v21.4
		c1.1,0.8,2.2,1.5,3.3,2.1v-23.5h27.6v22.1c1.1-0.8,2.2-1.7,3.3-2.7v-19.4h27.6v26.5h3.3v-26.5h12.5v-3.3h-12.5v-27.6h12.5v-3.3
		h-12.5v-27.6h12.5v-3.3h-12.5v-27.6H188.3z"/>
	<g class="st2">
		<path class="st3" d="M1.9,299.3v3.3h8.2v26.1c1.3,1.7,2.7,3.3,4.1,4.7h26.8v11.1c0.7,0,1.3,0.1,1.9,0.1c0.5,0,0.9,0,1.4,0v-11.1
			H72v0.5c1.3-1.2,2.4-2.4,3.5-3.8h-0.2v-27.6h8.2v-3.3h-8.2v-27.6h8.2v-3.3h-8.2v-27.6h3.4c1.5-0.9,4.1-2,6.7-3.3H75.2V217
			c-1.1,0.4-2.2,0.9-3.3,1.6v18.9H44.3v-12.9c-0.5,0-0.9,0-1.4,0c-0.6,0-1.3,0-1.9,0v12.9H13.4v-2.2c-1.8,1.7-3.3,3.5-4.7,5.5h1.5
			v27.6H1.9v3.3h8.2v27.6H1.9z M13.4,302.6h25.1c-0.2-0.6-0.3-1.3-0.3-2.1v-1.2H13.4v-27.6h24.8v-1.9c0-0.5,0-0.9,0.1-1.3H13.4
			v-27.6h27.6v24c0.6-0.2,1.2-0.3,1.9-0.3c0.5,0,1,0.1,1.4,0.2v-23.9H72v27.6H47c0.1,0.5,0.1,1,0.1,1.6v1.7H72v27.6H47.1v1.2
			c0,0.8-0.1,1.5-0.2,2.1h25v27.6H44.3v-24.3c-0.4,0.1-0.9,0.2-1.4,0.2c-0.7,0-1.3-0.1-1.9-0.4v24.5H13.4V302.6z"/>
		<path class="st3" d="M75.2,392v-26.9c-1.9-1.5-4-2.8-6.4-4H44.3v-6.6c-1.2-0.2-2.3-0.4-3.3-0.5v7.2H13.4V337
			c-1.1,1.1-2.2,2.3-3.3,3.7v20.4H2.2c0,0.1,0,0.3,0,0.4c0,1,0,1.9,0.1,2.9h7.8V392h-9c-0.3,1-0.5,2.1-0.7,3.3h9.7v26.6
			c1.8,1.6,3.9,3,6.2,4.3h24.7v6.2c1.1,0,2.2,0.1,3.3,0.1v-6.3h26.6c1.7-1,3.2-2.1,4.7-3.3h-0.4v-27.6h12.4c0-1.1,0-2.2-0.1-3.3
			H75.2z M72,392H52.7c0.5,0.5,0.8,1.2,0.8,1.9c0,0.5-0.1,0.9-0.2,1.3H72v27.6H44.3v-23.2c-0.7,0-1.3,0.1-1.9,0.1
			c-0.3,0-0.8,0-1.3,0v23.2H13.4v-27.6h15c-0.6-0.9-1-2-1-3.3c0,0,0,0,0,0h-14v-27.6h27.6v25.8c1.1,0.1,2.2,0.2,3.3,0.3v-26.2H72
			V392z"/>
	</g>
	<path class="st1" d="M265.8,180.8h-5.3v-27.6h5.3v-3.3h-5.3v-27.6h5.3V119h-5.3V91.4h10.2c1-1.3,2.1-2.4,3.4-3.3h-13.6V60.5h26.9
		v-3.3h-26.9V41.6h-3.3v15.7h-27.6V41.6h-3.3v15.7h-5.4v3.3h5.4v27.6h-5.4v3.3h5.4V119h-5.4v3.3h5.4v27.6h-5.4v3.3h5.4v27.6h-5.4
		v3.3h5.4v23.8h3.3v-23.8h27.6v23.8h3.3v-23.8h5.3V180.8z M257.3,180.8h-27.6v-27.6h27.6V180.8z M257.3,149.9h-27.6v-27.6h27.6
		V149.9z M257.3,119h-27.6V91.4h27.6V119z M257.3,88.1h-27.6V60.5h27.6V88.1z"/>
	<path class="st1" d="M207.6,122.3V119h-15.2V91.4h10.5c-0.6-1.1-1.2-2.2-1.8-3.3h-8.7v-9.7c-1-0.8-2.1-1.6-3.3-2.4v12.1h-27.6V68.3
		c-0.5,0-1,0-1.6,0c-0.6,0-1.2,0-1.7,0v19.9h-27.6v-12c-1.1,0.7-2.2,1.5-3.3,2.4v9.6h-8.7c-0.7,1.1-1.3,2.2-1.9,3.3h10.5V119h-15
		v3.3h15v27.6h-15v3.3h15v27.6H115c0.4,1.1,0.9,2.2,1.4,3.3h10.8v13.6c1,0.8,2.1,1.6,3.3,2.4v-16h27.6v24.1c0.6,0,1.1,0,1.7,0
		c0.5,0,1,0,1.6,0v-24.1H189v16.3c1.1-0.7,2.2-1.5,3.3-2.3v-14h11.1c0.5-1.1,1-2.2,1.4-3.3h-12.5v-27.6h15.2v-3.3h-15.2v-27.6H207.6
		z M189,119h-24.7v3.3H189v27.6h-24.7v3.3H189v27.6h-27.6v-17.7c-0.5,0.2-1,0.2-1.6,0.2c-0.7,0-1.2-0.1-1.7-0.3v17.8h-27.6v-27.6
		h24.9v-3.3h-24.9v-27.6h24.9V119h-24.9V91.4h27.6v21.5c0.5-0.2,1.1-0.3,1.7-0.3c0.6,0,1.1,0.1,1.6,0.3V91.4H189V119z"/>
	<path class="st1" d="M145.3,26.4H139V0h-3.3v26.4h-27.6V0h-3.3v26.4H77.3V0H74v26.4H46.4V0h-3.3v26.4H15.5V0h-3.3v26.4H3.5v3.3h8.7
		v27.6H3.5v3.3h8.7v27.6H3.5v3.3h8.7V119H3.5v3.3h8.7v27.6H3.5v3.3h8.7v27.6H3.5v3.3h8.7v23.8h3.3v-23.8h27.6v23.8h3.3v-23.8h12
		v-3.3h-12v-27.6h12v-3.3h-12v-27.6H74v10.7h3.3v-10.7h21.9V119H77.3V91.4h21.9v-3.3H77.3V77.1H74v11.1H46.4V60.5h12v-2.6
		c0-0.2,0-0.5,0.1-0.7H46.4V29.6H74v25.3h3.3V29.6h27.6v25.3h3.3V29.6h27.6v25.3h3.3V29.6h6.2V26.4z M43.1,180.8H15.5v-27.6h27.6
		V180.8z M43.1,149.9H15.5v-27.6h27.6V149.9z M43.1,119H15.5V91.4h27.6V119z M43.1,88.1H15.5V60.5h27.6V88.1z M43.1,57.2H15.5V29.6
		h27.6V57.2z M74,91.4V119H46.4V91.4H74z"/>
	<path class="st1" d="M215.9,151.8"/>
</g>
</svg>
